{"accessors" : [{"bufferView" : 0, "byteOffset" : 0, "componentType" : 5123, "count" : 25002, "type" : "SCALAR", "max" : [4786], "min" : [0]}, {"bufferView" : 1, "byteOffset" : 0, "componentType" : 5126, "count" : 4787, "type" : "VEC3", "max" : [15.920343399047852, 12.53938102722168, 33.31184387207031], "min" : [-15.920343399047852, -9.432624816894531, -19.464143753051758]}, {"bufferView" : 1, "byteOffset" : 12, "componentType" : 5126, "count" : 4787, "type" : "VEC3", "max" : [1.0000009536743164, 0.9999927282333374, 0.96634840965271], "min" : [-1.0000008344650269, -0.9999969601631165, -0.998455286026001]}, {"bufferView" : 0, "byteOffset" : 50004, "componentType" : 5123, "count" : 28257, "type" : "SCALAR", "max" : [4919], "min" : [0]}, {"bufferView" : 2, "byteOffset" : 0, "componentType" : 5126, "count" : 4920, "type" : "VEC3", "max" : [25.072904586791992, 13.317479133605957, 22.054271697998047], "min" : [14.20531940460205, -13.478963851928711, -29.40485191345215]}, {"bufferView" : 2, "byteOffset" : 12, "componentType" : 5126, "count" : 4920, "type" : "VEC3", "max" : [0.9994744062423706, 0.9958239197731018, 0.9727320671081543], "min" : [-0.9998987913131714, -0.999561071395874, -0.9977443218231201]}, {"bufferView" : 0, "byteOffset" : 106520, "componentType" : 5123, "count" : 28257, "type" : "SCALAR", "max" : [4919], "min" : [0]}, {"bufferView" : 3, "byteOffset" : 0, "componentType" : 5126, "count" : 4920, "type" : "VEC3", "max" : [-14.20531940460205, 13.317479133605957, 22.054271697998047], "min" : [-25.072904586791992, -13.478963851928711, -29.40485191345215]}, {"bufferView" : 3, "byteOffset" : 12, "componentType" : 5126, "count" : 4920, "type" : "VEC3", "max" : [0.9998987913131714, 0.9958239197731018, 0.9727320075035095], "min" : [-0.9994744658470154, -0.999561071395874, -0.9977443218231201]}, {"bufferView" : 0, "byteOffset" : 163036, "componentType" : 5123, "count" : 300, "type" : "SCALAR", "max" : [65], "min" : [0]}, {"bufferView" : 4, "byteOffset" : 0, "componentType" : 5126, "count" : 66, "type" : "VEC3", "max" : [-2.891512393951416, -4.776775360107422, 17.6363582611084], "min" : [-12.975966453552246, -9.237378120422363, 10.237743377685547]}, {"bufferView" : 4, "byteOffset" : 12, "componentType" : 5126, "count" : 66, "type" : "VEC3", "max" : [0.07601246237754822, -0.5914938449859619, 0.5186561942100525], "min" : [-0.8052471876144409, -0.9576562643051147, -0.04148118942975998]}, {"bufferView" : 0, "byteOffset" : 163636, "componentType" : 5123, "count" : 237, "type" : "SCALAR", "max" : [53], "min" : [0]}, {"bufferView" : 5, "byteOffset" : 0, "componentType" : 5126, "count" : 54, "type" : "VEC3", "max" : [-6.448797702789307, -2.108275890350342, 7.103122234344482], "min" : [-11.615084648132324, -8.512399673461914, -1.6042920351028442]}, {"bufferView" : 5, "byteOffset" : 12, "componentType" : 5126, "count" : 54, "type" : "VEC3", "max" : [-0.4438386559486389, -0.3153303563594818, 0.12284094840288162], "min" : [-0.9481773376464844, -0.8921787738800049, -0.2214493304491043]}, {"bufferView" : 0, "byteOffset" : 164112, "componentType" : 5123, "count" : 381, "type" : "SCALAR", "max" : [80], "min" : [0]}, {"bufferView" : 6, "byteOffset" : 0, "componentType" : 5126, "count" : 81, "type" : "VEC3", "max" : [-9.069634437561035, 8.16606330871582, 7.366634368896484], "min" : [-13.509428977966309, -1.8003735542297363, -1.2354238033294678]}, {"bufferView" : 6, "byteOffset" : 12, "componentType" : 5126, "count" : 81, "type" : "VEC3", "max" : [-0.761017382144928, 0.5857271552085876, -0.07136156409978867], "min" : [-0.9933230876922607, -0.3495750427246094, -0.4699813723564148]}, {"bufferView" : 0, "byteOffset" : 164876, "componentType" : 5123, "count" : 549, "type" : "SCALAR", "max" : [114], "min" : [0]}, {"bufferView" : 7, "byteOffset" : 0, "componentType" : 5126, "count" : 115, "type" : "VEC3", "max" : [-7.791750431060791, 8.8369722366333, 25.04111099243164], "min" : [-15.344334602355957, -1.2250584363937378, 19.9703369140625]}, {"bufferView" : 7, "byteOffset" : 12, "componentType" : 5126, "count" : 115, "type" : "VEC3", "max" : [-0.1419285088777542, 0.7086859941482544, 0.9590093493461609], "min" : [-0.47069454193115234, -0.7018929123878479, 0.6457133889198303]}], "asset" : {"generator" : "Aspose.3D 20.5.1", "version" : "2.0"}, "buffers" : [{"uri" : "buffer.bin", "byteLength" : 524640}], "bufferViews" : [{"buffer" : 0, "byteOffset" : 0, "byteLength" : 165976, "target" : 34963}, {"buffer" : 0, "byteOffset" : 165980, "byteLength" : 114888, "byteStride" : 24, "target" : 34962}, {"buffer" : 0, "byteOffset" : 280872, "byteLength" : 118080, "byteStride" : 24, "target" : 34962}, {"buffer" : 0, "byteOffset" : 398956, "byteLength" : 118080, "byteStride" : 24, "target" : 34962}, {"buffer" : 0, "byteOffset" : 517040, "byteLength" : 1584, "byteStride" : 24, "target" : 34962}, {"buffer" : 0, "byteOffset" : 518628, "byteLength" : 1296, "byteStride" : 24, "target" : 34962}, {"buffer" : 0, "byteOffset" : 519928, "byteLength" : 1944, "byteStride" : 24, "target" : 34962}, {"buffer" : 0, "byteOffset" : 521876, "byteLength" : 2760, "byteStride" : 24, "target" : 34962}], "materials" : [{"pbrMetallicRoughness" : {"baseColorFactor" : [0.9098039865493774, 0.7411764860153198, 0.5568627715110779, 1], "metallicFactor" : 0, "roughnessFactor" : 0}, "emissiveFactor" : [0, 0, 0], "alphaMode" : "OPAQUE", "doubleSided" : false}, {"pbrMetallicRoughness" : {"baseColorFactor" : [0.9098039865493774, 0.7411764860153198, 0.5568627715110779, 1], "metallicFactor" : 0, "roughnessFactor" : 0}, "emissiveFactor" : [0, 0, 0], "alphaMode" : "OPAQUE", "doubleSided" : false}, {"pbrMetallicRoughness" : {"baseColorFactor" : [0.9098039865493774, 0.7411764860153198, 0.5568627715110779, 1], "metallicFactor" : 0, "roughnessFactor" : 0}, "emissiveFactor" : [0, 0, 0], "alphaMode" : "OPAQUE", "doubleSided" : false}, {"pbrMetallicRoughness" : {"baseColorFactor" : [0.0941176563501358, 0.8156863451004028, 0.9686275124549866, 1], "metallicFactor" : 0, "roughnessFactor" : 0}, "emissiveFactor" : [0, 0, 0], "alphaMode" : "OPAQUE", "doubleSided" : false}, {"pbrMetallicRoughness" : {"baseColorFactor" : [0.0941176563501358, 0.8156863451004028, 0.9686275124549866, 1], "metallicFactor" : 0, "roughnessFactor" : 0}, "emissiveFactor" : [0, 0, 0], "alphaMode" : "OPAQUE", "doubleSided" : false}, {"pbrMetallicRoughness" : {"baseColorFactor" : [0.0941176563501358, 0.8156863451004028, 0.9686275124549866, 1], "metallicFactor" : 0, "roughnessFactor" : 0}, "emissiveFactor" : [0, 0, 0], "alphaMode" : "OPAQUE", "doubleSided" : false}, {"pbrMetallicRoughness" : {"baseColorFactor" : [0.0941176563501358, 0.8156863451004028, 0.9686275124549866, 1], "metallicFactor" : 0, "roughnessFactor" : 0}, "emissiveFactor" : [0, 0, 0], "alphaMode" : "OPAQUE", "doubleSided" : false}], "meshes" : [{"primitives" : [{"attributes" : {"POSITION" : 1, "NORMAL" : 2}, "indices" : 0, "material" : 0, "mode" : 4}]}, {"primitives" : [{"attributes" : {"POSITION" : 4, "NORMAL" : 5}, "indices" : 3, "material" : 1, "mode" : 4}]}, {"primitives" : [{"attributes" : {"POSITION" : 7, "NORMAL" : 8}, "indices" : 6, "material" : 2, "mode" : 4}]}, {"primitives" : [{"attributes" : {"POSITION" : 10, "NORMAL" : 11}, "indices" : 9, "material" : 3, "mode" : 4}]}, {"primitives" : [{"attributes" : {"POSITION" : 13, "NORMAL" : 14}, "indices" : 12, "material" : 4, "mode" : 4}]}, {"primitives" : [{"attributes" : {"POSITION" : 16, "NORMAL" : 17}, "indices" : 15, "material" : 5, "mode" : 4}]}, {"primitives" : [{"attributes" : {"POSITION" : 19, "NORMAL" : 20}, "indices" : 18, "material" : 6, "mode" : 4}]}], "nodes" : [{"matrix" : [1, 0, 0, 0, 0, -2.220446049250313E-16, -1.0000000000000002, 0, 0, 1.0000000000000002, -2.220446049250313E-16, 0, 0, 43.078338623046875, 4.479277847363869E-07, 1], "mesh" : 0, "name" : "Mannequin"}, {"matrix" : [1, 0, 0, 0, 0, -2.220446049250313E-16, -1.0000000000000002, 0, 0, 1.0000000000000002, -2.220446049250313E-16, 0, 0, 43.078338623046875, -4.345927211377447E-15, 1], "mesh" : 1, "name" : "Mannequin_LH"}, {"matrix" : [1, 0, 0, 0, 0, -2.220446049250313E-16, -1.0000000000000002, 0, 0, 1.0000000000000002, -2.220446049250313E-16, 0, 0, 43.078338623046875, -4.345927211377447E-15, 1], "mesh" : 2, "name" : "Mannequin_RH"}, {"matrix" : [1, 0, 0, 0, 0, -2.220446049250313E-16, -1.0000000000000002, 0, 0, 1.0000000000000002, -2.220446049250313E-16, 0, 0, 43.078338623046875, 4.479277847363869E-07, 1], "mesh" : 3, "name" : "Sensor_A"}, {"matrix" : [1, 0, 0, 0, 0, -2.220446049250313E-16, -1.0000000000000002, 0, 0, 1.0000000000000002, -2.220446049250313E-16, 0, 0, 43.078338623046875, 4.479277847363869E-07, 1], "mesh" : 4, "name" : "Sensor_B"}, {"matrix" : [1, 0, 0, 0, 0, -2.220446049250313E-16, -1.0000000000000002, 0, 0, 1.0000000000000002, -2.220446049250313E-16, 0, 0, 43.078338623046875, 4.479277847363869E-07, 1], "mesh" : 5, "name" : "Sensor_C"}, {"matrix" : [1, 0, 0, 0, 0, -2.220446049250313E-16, -1.0000000000000002, 0, 0, 1.0000000000000002, -2.220446049250313E-16, 0, 0, 43.078338623046875, 4.479277847363869E-07, 1], "mesh" : 6, "name" : "Sensor_D"}], "scene" : 0, "scenes" : [{"nodes" : [0, 1, 2, 3, 4, 5, 6]}]}